<svg xmlns="http://www.w3.org/2000/svg" width="237" height="56" viewBox="0 0 237 56"> <g fill="none" fill-rule="nonzero"> <path fill="#E7C539" d="M24.862 12.071S19.87 5.355 26.556 0c0 0 3.661 5.476-1.694 12.071" /> <path fill="#27884D" d="M41.532 54.064a33.799 33.799 0 0 0 1.755-1.906 33.353 33.353 0 0 0 7.261-14.1c1.3-5.839.756-11.224-1.6-15.52a17.975 17.975 0 0 0-11.285-8.743 15.167 15.167 0 0 0-4.205-.575c-2.74.016-5.432.712-7.836 2.027a16.523 16.523 0 0 0-7.844-2.026 15.167 15.167 0 0 0-4.205.575 17.975 17.975 0 0 0-11.28 8.743c-2.36 4.326-2.9 9.681-1.6 15.52a33.352 33.352 0 0 0 7.348 14.162c.182.212.575.666 1.059 1.18a5.241 5.241 0 1 0 8.592-5.96l-.121-.121a4.621 4.621 0 0 0-.545-.545 23.927 23.927 0 0 1-6.232-10.924c-.817-3.691-1.18-10.165 5.6-12.071.454-.12.922-.181 1.392-.182a7.349 7.349 0 0 1 4.508 1.876l3.328 2.814 3.328-2.814a7.349 7.349 0 0 1 4.508-1.876c.47-.001.938.06 1.392.182 6.777 1.906 6.414 8.38 5.6 12.071a23.319 23.319 0 0 1-5.809 10.5c-.594.383-1.1.888-1.482 1.482l-.091.091.03.03a5.238 5.238 0 0 0 7.231 7.231l.061.061c.151-.121.272-.272.424-.393.255-.248.495-.511.718-.789z" /> <path fill="#1B703D" d="M24.771 12.041c3.143.16 6.255-.677 8.895-2.39a14.7 14.7 0 0 0 4.992-7.715s-5.052-.393-8.864 2.39a14.63 14.63 0 0 0-5.023 7.715z" /> <path fill="#709352" d="M31.911 10.347c.222.004.445-.006.666-.03a15.337 15.337 0 0 1-7.685 1.633 14.989 14.989 0 0 1 1.543-3.721 8.087 8.087 0 0 0 5.476 2.118z" opacity=".3" /> <path fill="#1B703D" d="M48.854 22.539a17.975 17.975 0 0 0-11.285-8.743 15.167 15.167 0 0 0-4.205-.575c-2.74.016-5.432.712-7.836 2.027v12.979l3.328-2.814a7.349 7.349 0 0 1 4.508-1.876c.47-.001.938.06 1.392.182 6.777 1.906 6.414 8.38 5.6 12.071a23.319 23.319 0 0 1-5.809 10.5c-.594.383-1.1.888-1.482 1.482l-.091.091.03.03a5.238 5.238 0 0 0 7.224 7.228l.061.061c.151-.121.272-.272.424-.393.274-.229.527-.482.756-.756a33.799 33.799 0 0 0 1.755-1.906 33.353 33.353 0 0 0 7.261-14.1c1.273-5.806.729-11.192-1.631-15.488z" /> <g fill="#27884D"> <path d="M68.905 41.267L64.329 33.1v10.663a1.711 1.711 0 0 1-1.664 1.664A1.749 1.749 0 0 1 61 43.763V26.964a1.711 1.711 0 0 1 1.664-1.664c.638.007 1.22.367 1.508.936l6.19 11.078 6.189-11.078a1.672 1.672 0 0 1 3.173.728v16.8a1.664 1.664 0 1 1-3.329 0V33.1l-4.577 8.165a1.69 1.69 0 0 1-2.913 0v.002zM85.185 35.441c-.25.202-.562.312-.884.312a1.343 1.343 0 0 1-1.352-1.352c.003-.362.131-.711.364-.988a6.242 6.242 0 0 1 4.784-1.872c3.641 0 5.773 1.768 5.773 4.889v7.489a1.56 1.56 0 0 1-3.121 0c-.78 1.248-2.08 1.716-3.849 1.716-2.861 0-4.733-1.768-4.733-4.421 0-2.7 2.184-4.109 4.733-4.109h3.849v-.52c0-1.3-.988-2.184-2.652-2.184a4.066 4.066 0 0 0-2.912 1.04zm5.617 4.837v-.832h-3.434c-1.3 0-1.976.624-1.976 1.664 0 1.092.78 1.768 2.444 1.768a2.7 2.7 0 0 0 2.966-2.599v-.001zM108.483 36.589v7.281a1.49 1.49 0 0 1-1.56 1.508 1.461 1.461 0 0 1-1.56-1.508v-6.712c0-1.664-.676-2.809-2.548-2.809-2.184 0-2.913 1.3-2.913 3.017v6.5a1.561 1.561 0 0 1-3.121 0V33.257a1.56 1.56 0 1 1 3.121 0 4.379 4.379 0 0 1 3.746-1.768c3.901 0 4.835 2.548 4.835 5.1zM111.917 31.905h7.489a1.4 1.4 0 0 1 1.088 2.284l-6.137 8.27h5.3a1.352 1.352 0 1 1 0 2.7h-8.052a1.377 1.377 0 0 1-1.352-1.344 1.5 1.5 0 0 1 .312-.884l6.293-8.426h-4.941a1.3 1.3 0 0 1 0-2.6zM125.492 35.441c-.25.202-.562.312-.884.312a1.343 1.343 0 0 1-1.352-1.352c.003-.362.131-.711.364-.988a6.242 6.242 0 0 1 4.785-1.872c3.641 0 5.773 1.768 5.773 4.889v7.489a1.56 1.56 0 1 1-3.121 0c-.78 1.248-2.08 1.716-3.849 1.716-2.861 0-4.733-1.768-4.733-4.421 0-2.7 2.184-4.109 4.733-4.109h3.849v-.52c0-1.3-.988-2.184-2.652-2.184a3.98 3.98 0 0 0-2.913 1.04zm5.565 4.837v-.832h-3.433c-1.3 0-1.976.624-1.976 1.664 0 1.092.78 1.768 2.444 1.768a2.67 2.67 0 0 0 2.965-2.599v-.001zM148.738 36.589v7.281a1.49 1.49 0 0 1-1.56 1.508 1.461 1.461 0 0 1-1.56-1.508v-6.712c0-1.664-.676-2.809-2.548-2.809-2.184 0-2.913 1.3-2.913 3.017v6.5a1.561 1.561 0 0 1-3.121 0V33.257a1.56 1.56 0 1 1 3.121 0 4.379 4.379 0 0 1 3.745-1.768c3.902 0 4.836 2.548 4.836 5.1zM153.837 35.441c-.25.202-.562.312-.884.312a1.343 1.343 0 0 1-1.352-1.352c.003-.362.131-.711.364-.988a6.242 6.242 0 0 1 4.785-1.872c3.641 0 5.773 1.768 5.773 4.889v7.489a1.56 1.56 0 0 1-3.121 0c-.78 1.248-2.08 1.716-3.849 1.716-2.861 0-4.733-1.768-4.733-4.421 0-2.7 2.184-4.109 4.733-4.109h3.849v-.52c0-1.3-.988-2.184-2.652-2.184a3.98 3.98 0 0 0-2.913 1.04zm5.565 4.837v-.832h-3.433c-1.3 0-1.976.624-1.976 1.664 0 1.092.78 1.768 2.444 1.768a2.67 2.67 0 0 0 2.965-2.599v-.001z" /> <g> <path d="M175.369 44.803l-4.841-10.974a1.94 1.94 0 0 1-.1-.624 1.62 1.62 0 0 1 1.612-1.612 1.6 1.6 0 0 1 1.508 1.04l3.329 8.426 3.329-8.426a1.6 1.6 0 0 1 1.508-1.04 1.62 1.62 0 0 1 1.612 1.612 1.94 1.94 0 0 1-.1.624l-4.841 10.974a1.586 1.586 0 0 1-1.508.988 1.514 1.514 0 0 1-1.508-.988zM191.18 31.385c5.1 0 6.085 3.953 6.085 6.033 0 1.144 0 2.444-1.872 2.444h-7.489c0 2.184 1.56 3.173 3.537 3.173a5.32 5.32 0 0 0 3.017-.936 1.6 1.6 0 0 1 .988-.312 1.4 1.4 0 0 1 1.4 1.4c-.02.434-.206.844-.52 1.144a7.272 7.272 0 0 1-4.889 1.664c-4.213 0-6.813-2.288-6.813-7.333.003-4.677 2.447-7.277 6.556-7.277zm-3.173 5.721h5.981a2.709 2.709 0 0 0-2.809-2.965 3.008 3.008 0 0 0-3.171 2.965h-.001zM202.778 33.361a3.7 3.7 0 0 1 3.275-1.924 1.56 1.56 0 1 1 0 3.121 3.088 3.088 0 0 0-3.277 3.381v6.293a1.612 1.612 0 1 1-3.225 0V33.205a1.612 1.612 0 1 1 3.225 0l.002.156zM218.069 32.582v-6.97a1.612 1.612 0 1 1 3.225 0v14.251c0 4-2.6 6.085-6.293 6.085-4.109 0-6.5-2.34-6.5-7.281s2.34-7.281 6.137-7.281a5.251 5.251 0 0 1 3.431 1.196zm0 3.121a4.212 4.212 0 0 0-3.017-1.56c-2.08 0-3.225 1.508-3.225 4.525 0 2.965 1.144 4.473 3.225 4.473a2.943 2.943 0 0 0 3.017-3.277v-4.161zM230.134 31.385c5.1 0 6.085 3.953 6.085 6.033 0 1.144 0 2.444-1.872 2.444h-7.437c0 2.184 1.56 3.173 3.537 3.173 1.077 0 2.13-.326 3.017-.936a1.6 1.6 0 0 1 .988-.312 1.4 1.4 0 0 1 1.4 1.4c-.02.434-.206.844-.52 1.144a7.272 7.272 0 0 1-4.889 1.664c-4.213 0-6.813-2.288-6.813-7.333.004-4.677 2.396-7.277 6.504-7.277zm-3.173 5.721h5.981a2.709 2.709 0 0 0-2.809-2.965 3.038 3.038 0 0 0-3.17 2.965h-.002z" /> </g> </g> </g></svg>